<svg xmlns="http://www.w3.org/2000/svg"><symbol id="close" viewBox="0 0 24 24"><path d="M23.9 1.5L22.5.1 12 10.6 1.4 0 0 1.4 10.6 12 0 22.6 1.4 24 12 13.4 22.6 24l1.4-1.4L13.4 12z"/></symbol><symbol id="mcmillan" viewBox="0 0 70 24"><path d="M.5 24c-.2 0-.3-.1-.3-.2V1.2A.3.3 0 0 1 .5.9h1l.4.2 9.7 11h.3l9.7-11 .4-.2h1.1c.1 0 .2.1.2.3v22.6l-.2.2h-4.2l-.2-.2v-13c0-.1-.1-.1-.2 0l-6.6 7.3h-.3L5 10.8c-.1-.1-.2-.1-.2 0v13a.2.2 0 0 1-.2.2zm46.4 0a.2.2 0 0 1-.2-.2V1.2c0-.2.1-.3.2-.3H48l.4.2 9.7 11h.3l9.7-11 .4-.2h1a.3.3 0 0 1 .3.3v22.6c0 .1-.1.2-.3.2h-4.1a.2.2 0 0 1-.2-.2v-13c0-.1 0-.1-.1 0l-6.6 7.3h-.3l-6.7-7.3c0-.1-.1-.1-.1 0v13a.2.2 0 0 1-.2.2z"/><rect width="14.9" height="4.24" x="27.5" y="19.8" rx=".2" ry=".2"/><path d="M39 9.9s-.3-.3-.4 0a3.5 3.5 0 0 1-2.9 1.5 3.4 3.4 0 0 1-3.5-3.5 3.5 3.5 0 0 1 3.5-3.5A3.6 3.6 0 0 1 38.6 6c.1.2.4 0 .4 0l2.6-3a.4.4 0 0 0-.1-.4.1.1 0 0 0-.1-.1A8 8 0 0 0 36.2 0h-.5a8 8 0 0 0-8 7.9 8 8 0 0 0 8 8h.4a8.3 8.3 0 0 0 5.3-2.5h.1a.5.5 0 0 0 .1-.5z"/></symbol><symbol id="menu" viewBox="0 0 24 24"><path fill="none" d="M0 0h24v24H0z"/><path d="M2 16h20v-2H2zm0-6h20V8H2z"/></symbol><symbol id="mcmillan" viewBox="0 0 70 24"><path d="M.5 24c-.2 0-.3-.1-.3-.2V1.2A.3.3 0 0 1 .5.9h1l.4.2 9.7 11h.3l9.7-11 .4-.2h1.1c.1 0 .2.1.2.3v22.6l-.2.2h-4.2l-.2-.2v-13c0-.1-.1-.1-.2 0l-6.6 7.3h-.3L5 10.8c-.1-.1-.2-.1-.2 0v13a.2.2 0 0 1-.2.2zm46.4 0a.2.2 0 0 1-.2-.2V1.2c0-.2.1-.3.2-.3H48l.4.2 9.7 11h.3l9.7-11 .4-.2h1a.3.3 0 0 1 .3.3v22.6c0 .1-.1.2-.3.2h-4.1a.2.2 0 0 1-.2-.2v-13c0-.1 0-.1-.1 0l-6.6 7.3h-.3l-6.7-7.3c0-.1-.1-.1-.1 0v13a.2.2 0 0 1-.2.2z"/><rect width="14.9" height="4.24" x="27.5" y="19.8" rx=".2" ry=".2"/><path d="M39 9.9s-.3-.3-.4 0a3.5 3.5 0 0 1-2.9 1.5 3.4 3.4 0 0 1-3.5-3.5 3.5 3.5 0 0 1 3.5-3.5A3.6 3.6 0 0 1 38.6 6c.1.2.4 0 .4 0l2.6-3a.4.4 0 0 0-.1-.4.1.1 0 0 0-.1-.1A8 8 0 0 0 36.2 0h-.5a8 8 0 0 0-8 7.9 8 8 0 0 0 8 8h.4a8.3 8.3 0 0 0 5.3-2.5h.1a.5.5 0 0 0 .1-.5z"/></symbol><symbol id="close" viewBox="0 0 24 24"><path d="M23.9 1.5L22.5.1 12 10.6 1.4 0 0 1.4 10.6 12 0 22.6 1.4 24 12 13.4 22.6 24l1.4-1.4L13.4 12z"/></symbol><symbol id="menu" viewBox="0 0 24 24"><path fill="none" d="M0 0h24v24H0z"/><path d="M2 16h20v-2H2zm0-6h20V8H2z"/></symbol></svg>