<?xml version="1.0" standalone="no"?>
<!DOCTYPE svg PUBLIC "-//W3C//DTD SVG 20010904//EN"
 "http://www.w3.org/TR/2001/REC-SVG-20010904/DTD/svg10.dtd">
<svg version="1.0" xmlns="http://www.w3.org/2000/svg"
 width="1024.000000pt" height="1024.000000pt" viewBox="0 0 1024.000000 1024.000000"
 preserveAspectRatio="xMidYMid meet">
<metadata>
Created by potrace 1.11, written by Peter Selinger 2001-2013
</metadata>
<g transform="translate(0.000000,1024.000000) scale(0.100000,-0.100000)"
fill="#000000" stroke="none">
<path d="M5065 6874 c-74 -11 -93 -14 -150 -28 -55 -12 -179 -63 -251 -102
-315 -169 -532 -468 -599 -824 -11 -58 -15 -322 -5 -365 5 -22 11 -59 15 -83
3 -24 22 -88 41 -142 96 -278 296 -510 554 -644 117 -61 186 -86 345 -122 47
-11 294 -14 355 -4 139 21 252 55 362 110 115 57 207 121 295 206 81 80 85 92
39 144 -13 14 -69 79 -127 145 -57 66 -106 122 -109 125 -3 3 -36 40 -74 82
-46 52 -74 77 -87 75 -10 -2 -32 -22 -48 -45 -64 -88 -184 -162 -303 -186
-314 -64 -610 177 -611 498 0 350 338 596 669 488 87 -29 152 -72 227 -152 41
-43 71 -68 80 -64 8 3 48 44 90 92 41 49 88 102 104 118 15 17 44 51 65 75 20
24 61 71 92 104 76 82 76 97 8 168 -105 109 -283 221 -433 273 -176 61 -378
83 -544 58z"/>
<path d="M22 6738 c-9 -9 -12 -398 -12 -1690 0 -1587 1 -1678 18 -1686 21 -11
632 -10 650 1 9 7 12 212 12 973 0 560 4 964 9 964 5 0 42 -37 82 -82 41 -46
92 -103 114 -127 22 -24 45 -49 50 -55 6 -7 35 -39 65 -71 30 -33 87 -96 125
-139 39 -43 83 -93 98 -109 16 -17 56 -62 90 -100 34 -39 69 -77 77 -86 9 -9
52 -56 95 -106 44 -49 103 -114 130 -143 28 -29 52 -58 53 -63 9 -24 50 -5 92
42 25 28 50 56 55 63 43 46 131 144 190 210 39 44 81 91 95 105 14 14 61 67
105 116 43 50 86 97 95 106 8 9 44 49 80 89 36 41 78 88 93 104 16 17 72 79
125 139 53 59 99 107 104 107 10 0 9 83 12 -991 1 -683 5 -930 13 -941 10 -11
70 -13 332 -13 175 0 323 4 328 8 11 11 12 3347 1 3370 -7 14 -23 17 -111 17
-116 0 -108 4 -207 -111 -30 -35 -75 -86 -101 -114 -25 -27 -94 -106 -154
-175 -60 -69 -112 -127 -115 -130 -5 -5 -113 -129 -160 -184 -14 -16 -32 -36
-41 -45 -8 -9 -78 -88 -155 -176 -76 -88 -143 -165 -149 -171 -5 -6 -35 -39
-65 -73 -30 -35 -66 -75 -80 -91 -25 -28 -111 -124 -150 -170 -170 -197 -196
-223 -214 -213 -8 4 -85 89 -171 188 -87 99 -171 196 -189 215 -17 19 -65 73
-106 120 -41 47 -86 99 -101 115 -53 60 -195 222 -254 290 -55 64 -143 163
-155 175 -3 3 -34 39 -70 80 -35 41 -67 77 -70 80 -3 3 -32 37 -65 75 -33 39
-63 72 -66 75 -3 3 -40 46 -83 95 -133 152 -121 145 -234 145 -63 0 -102 -4
-110 -12z"/>
<path d="M6843 6738 c-4 -7 -8 -766 -8 -1687 0 -1665 0 -1674 20 -1686 28 -17
626 -15 646 2 12 10 14 159 14 972 0 732 3 961 12 961 6 0 21 -12 33 -27 17
-23 90 -104 175 -197 6 -6 50 -56 100 -111 49 -55 94 -105 100 -111 13 -13
139 -154 166 -185 17 -20 104 -116 194 -215 11 -12 65 -72 119 -133 54 -61
107 -111 116 -111 9 0 53 39 96 87 43 48 86 94 94 103 8 9 51 56 95 106 44 49
82 91 85 94 3 3 43 48 90 100 47 52 87 97 90 100 3 3 43 48 90 100 47 52 87
97 90 100 3 3 41 45 85 95 44 49 101 112 127 140 26 27 48 53 48 58 0 4 6 7
14 7 11 0 14 -154 15 -962 1 -630 5 -966 12 -973 13 -13 639 -15 657 -2 9 8
12 358 12 1692 0 1525 -1 1683 -16 1689 -9 3 -59 6 -111 6 l-95 0 -37 -38
c-31 -33 -130 -143 -184 -206 -10 -12 -28 -32 -40 -46 -12 -14 -51 -59 -87
-100 -36 -41 -72 -82 -80 -90 -8 -8 -62 -69 -120 -135 -58 -66 -117 -133 -131
-150 -15 -16 -82 -93 -150 -170 -67 -77 -148 -169 -180 -205 -31 -36 -130
-148 -219 -250 -205 -233 -239 -270 -249 -270 -5 0 -39 35 -77 78 -38 42 -71
79 -74 82 -3 3 -82 93 -175 200 -93 107 -172 197 -175 200 -3 3 -35 39 -70 80
-36 41 -68 77 -71 80 -3 3 -39 43 -79 90 -41 47 -77 87 -80 90 -3 3 -66 75
-140 160 -74 85 -147 168 -162 185 -29 33 -25 28 -158 180 -52 60 -122 137
-156 172 l-60 63 -101 0 c-71 0 -104 -4 -110 -12z"/>
<path d="M4033 3973 c-10 -3 -13 -74 -13 -303 0 -275 1 -300 18 -308 9 -5 498
-8 1085 -8 911 1 1069 3 1077 15 12 21 11 583 -2 599 -8 9 -236 12 -1082 11
-589 0 -1077 -3 -1083 -6z"/>
</g>
</svg>
